<svg version="1.1" viewBox="0.0 0.0 720.0 540.0" fill="none" stroke="none" stroke-linecap="square" stroke-miterlimit="10" xmlns:xlink="http://www.w3.org/1999/xlink" xmlns="http://www.w3.org/2000/svg"><clipPath id="p.0"><path d="m0 0l720.0 0l0 540.0l-720.0 0l0 -540.0z" clip-rule="nonzero"/></clipPath><g clip-path="url(#p.0)"><path fill="#000000" fill-opacity="0.0" d="m0 0l720.0 0l0 540.0l-720.0 0z" fill-rule="evenodd"/><path fill="#ff0000" d="m313.5433 270.0l0 0c0 -25.091995 20.799377 -45.433075 46.456696 -45.433075l0 0c12.321075 0 24.137512 4.786682 32.849854 13.307037c8.712311 8.520355 13.606842 20.076447 13.606842 32.126038l0 0c0 25.09198 -20.799377 45.433075 -46.456696 45.433075l0 0c-25.657318 0 -46.456696 -20.341095 -46.456696 -45.433075z" fill-rule="evenodd"/><path stroke="#000000" stroke-width="8.0" stroke-linejoin="round" stroke-linecap="butt" d="m313.5433 270.0l0 0c0 -25.091995 20.799377 -45.433075 46.456696 -45.433075l0 0c12.321075 0 24.137512 4.786682 32.849854 13.307037c8.712311 8.520355 13.606842 20.076447 13.606842 32.126038l0 0c0 25.09198 -20.799377 45.433075 -46.456696 45.433075l0 0c-25.657318 0 -46.456696 -20.341095 -46.456696 -45.433075z" fill-rule="evenodd"/><path fill="#000000" fill-opacity="0.0" d="m313.5433 270.0l-30.64566 29.417328" fill-rule="evenodd"/><path stroke="#000000" stroke-width="12.0" stroke-linejoin="round" stroke-linecap="butt" d="m313.5433 270.0l-30.64566 29.417328" fill-rule="evenodd"/><path fill="#000000" fill-opacity="0.0" d="m406.4567 270.0l30.299225 29.417328" fill-rule="evenodd"/><path stroke="#000000" stroke-width="12.0" stroke-linejoin="round" stroke-linecap="butt" d="m406.4567 270.0l30.299225 29.417328" fill-rule="evenodd"/><path fill="#000000" fill-opacity="0.0" d="m327.15015 237.87396l-12.251953 -22.078735" fill-rule="evenodd"/><path stroke="#000000" stroke-width="4.0" stroke-linejoin="round" stroke-linecap="butt" d="m327.15015 237.87396l-12.251953 -22.078735" fill-rule="evenodd"/><path fill="#000000" fill-opacity="0.0" d="m392.84985 237.87396l13.952759 -24.15747" fill-rule="evenodd"/><path stroke="#000000" stroke-width="4.0" stroke-linejoin="round" stroke-linecap="butt" d="m392.84985 237.87396l13.952759 -24.15747" fill-rule="evenodd"/><path fill="#000000" d="m342.11023 270.0l0 0c0 -10.123779 8.0095215 -18.330704 17.88977 -18.330704l0 0c4.7446594 0 9.294983 1.9312592 12.649963 5.3689423c3.3549805 3.4376526 5.239807 8.100159 5.239807 12.961761l0 0c0 10.123779 -8.0095215 18.330719 -17.88977 18.330719l0 0c-9.880249 0 -17.88977 -8.20694 -17.88977 -18.330719z" fill-rule="evenodd"/><path stroke="#000000" stroke-width="1.0" stroke-linejoin="round" stroke-linecap="butt" d="m342.11023 270.0l0 0c0 -10.123779 8.0095215 -18.330704 17.88977 -18.330704l0 0c4.7446594 0 9.294983 1.9312592 12.649963 5.3689423c3.3549805 3.4376526 5.239807 8.100159 5.239807 12.961761l0 0c0 10.123779 -8.0095215 18.330719 -17.88977 18.330719l0 0c-9.880249 0 -17.88977 -8.20694 -17.88977 -18.330719z" fill-rule="evenodd"/></g></svg>